M48
; DRILL file {KiCad 8.0.7} date 2025-01-26T18:00:50+0100
; FORMAT={-:-/ absolute / inch / decimal}
; #@! TF.CreationDate,2025-01-26T18:00:50+01:00
; #@! TF.GenerationSoftware,Kicad,Pcbnew,8.0.7
; #@! TF.FileFunction,Plated,1,2,PTH
FMAT,2
INCH
; #@! TA.AperFunction,Plated,PTH,ViaDrill
T1C0.0157
; #@! TA.AperFunction,Plated,PTH,ComponentDrill
T2C0.0354
; #@! TA.AperFunction,Plated,PTH,ComponentDrill
T3C0.0374
; #@! TA.AperFunction,Plated,PTH,ComponentDrill
T4C0.0394
; #@! TA.AperFunction,Plated,PTH,ComponentDrill
T5C0.0400
; #@! TA.AperFunction,Plated,PTH,ComponentDrill
T6C0.0433
; #@! TA.AperFunction,Plated,PTH,ViaDrill
T7C0.0787
%
G90
G05
T1
X5.6Y-3.95
X7.125Y-4.325
T2
X5.675Y-4.3008
X5.775Y-4.3008
X5.95Y-4.3008
X6.05Y-4.3008
X6.225Y-4.3008
X6.325Y-4.3008
T3
X3.925Y-3.6805
X3.925Y-3.7789
X3.925Y-3.8774
X3.925Y-3.9758
X5.825Y-3.4297
X5.825Y-3.5281
X5.825Y-3.6266
X5.825Y-3.725
X6.2Y-3.4297
X6.2Y-3.5281
X6.2Y-3.6266
X6.2Y-3.725
X6.575Y-3.4305
X6.575Y-3.5289
X6.575Y-3.6274
X6.575Y-3.7258
T4
X4.2675Y-3.7055
X4.2675Y-3.9024
X5.425Y-3.5008
X5.425Y-4.1071
T5
X7.125Y-4.1258
X7.125Y-4.2258
X7.225Y-4.1258
X7.225Y-4.2258
X7.325Y-4.1258
X7.325Y-4.2258
X7.425Y-4.1258
X7.425Y-4.2258
T6
X6.4941Y-4.2008
X6.4941Y-4.378
X6.75Y-4.2008
X6.75Y-4.378
T7
X3.85Y-3.1758
X3.85Y-4.4258
X7.625Y-3.1758
X7.625Y-4.4258
M30
