%TF.GenerationSoftware,KiCad,Pcbnew,8.0.7*%
%TF.CreationDate,2025-01-26T18:01:06+01:00*%
%TF.ProjectId,ESP_PZEM004V3,4553505f-505a-4454-9d30-303456332e6b,rev?*%
%TF.SameCoordinates,Original*%
%TF.FileFunction,Legend,Top*%
%TF.FilePolarity,Positive*%
%FSLAX46Y46*%
G04 Gerber Fmt 4.6, Leading zero omitted, Abs format (unit mm)*
G04 Created by KiCad (PCBNEW 8.0.7) date 2025-01-26 18:01:06*
%MOMM*%
%LPD*%
G01*
G04 APERTURE LIST*
%ADD10C,0.150000*%
%ADD11C,0.120000*%
%ADD12C,0.254000*%
%ADD13C,0.152400*%
%ADD14R,1.727200X1.727200*%
%ADD15O,1.727200X1.727200*%
G04 APERTURE END LIST*
D10*
X143859819Y-91198333D02*
X144574104Y-91198333D01*
X144574104Y-91198333D02*
X144716961Y-91245952D01*
X144716961Y-91245952D02*
X144812200Y-91341190D01*
X144812200Y-91341190D02*
X144859819Y-91484047D01*
X144859819Y-91484047D02*
X144859819Y-91579285D01*
X144859819Y-90198333D02*
X144859819Y-90769761D01*
X144859819Y-90484047D02*
X143859819Y-90484047D01*
X143859819Y-90484047D02*
X144002676Y-90579285D01*
X144002676Y-90579285D02*
X144097914Y-90674523D01*
X144097914Y-90674523D02*
X144145533Y-90769761D01*
X153384819Y-91198333D02*
X154099104Y-91198333D01*
X154099104Y-91198333D02*
X154241961Y-91245952D01*
X154241961Y-91245952D02*
X154337200Y-91341190D01*
X154337200Y-91341190D02*
X154384819Y-91484047D01*
X154384819Y-91484047D02*
X154384819Y-91579285D01*
X153480057Y-90769761D02*
X153432438Y-90722142D01*
X153432438Y-90722142D02*
X153384819Y-90626904D01*
X153384819Y-90626904D02*
X153384819Y-90388809D01*
X153384819Y-90388809D02*
X153432438Y-90293571D01*
X153432438Y-90293571D02*
X153480057Y-90245952D01*
X153480057Y-90245952D02*
X153575295Y-90198333D01*
X153575295Y-90198333D02*
X153670533Y-90198333D01*
X153670533Y-90198333D02*
X153813390Y-90245952D01*
X153813390Y-90245952D02*
X154384819Y-90817380D01*
X154384819Y-90817380D02*
X154384819Y-90198333D01*
X162909819Y-91218333D02*
X163624104Y-91218333D01*
X163624104Y-91218333D02*
X163766961Y-91265952D01*
X163766961Y-91265952D02*
X163862200Y-91361190D01*
X163862200Y-91361190D02*
X163909819Y-91504047D01*
X163909819Y-91504047D02*
X163909819Y-91599285D01*
X162909819Y-90837380D02*
X162909819Y-90218333D01*
X162909819Y-90218333D02*
X163290771Y-90551666D01*
X163290771Y-90551666D02*
X163290771Y-90408809D01*
X163290771Y-90408809D02*
X163338390Y-90313571D01*
X163338390Y-90313571D02*
X163386009Y-90265952D01*
X163386009Y-90265952D02*
X163481247Y-90218333D01*
X163481247Y-90218333D02*
X163719342Y-90218333D01*
X163719342Y-90218333D02*
X163814580Y-90265952D01*
X163814580Y-90265952D02*
X163862200Y-90313571D01*
X163862200Y-90313571D02*
X163909819Y-90408809D01*
X163909819Y-90408809D02*
X163909819Y-90694523D01*
X163909819Y-90694523D02*
X163862200Y-90789761D01*
X163862200Y-90789761D02*
X163814580Y-90837380D01*
X182319819Y-100239166D02*
X181843628Y-100572499D01*
X182319819Y-100810594D02*
X181319819Y-100810594D01*
X181319819Y-100810594D02*
X181319819Y-100429642D01*
X181319819Y-100429642D02*
X181367438Y-100334404D01*
X181367438Y-100334404D02*
X181415057Y-100286785D01*
X181415057Y-100286785D02*
X181510295Y-100239166D01*
X181510295Y-100239166D02*
X181653152Y-100239166D01*
X181653152Y-100239166D02*
X181748390Y-100286785D01*
X181748390Y-100286785D02*
X181796009Y-100334404D01*
X181796009Y-100334404D02*
X181843628Y-100429642D01*
X181843628Y-100429642D02*
X181843628Y-100810594D01*
X181319819Y-99382023D02*
X181319819Y-99572499D01*
X181319819Y-99572499D02*
X181367438Y-99667737D01*
X181367438Y-99667737D02*
X181415057Y-99715356D01*
X181415057Y-99715356D02*
X181557914Y-99810594D01*
X181557914Y-99810594D02*
X181748390Y-99858213D01*
X181748390Y-99858213D02*
X182129342Y-99858213D01*
X182129342Y-99858213D02*
X182224580Y-99810594D01*
X182224580Y-99810594D02*
X182272200Y-99762975D01*
X182272200Y-99762975D02*
X182319819Y-99667737D01*
X182319819Y-99667737D02*
X182319819Y-99477261D01*
X182319819Y-99477261D02*
X182272200Y-99382023D01*
X182272200Y-99382023D02*
X182224580Y-99334404D01*
X182224580Y-99334404D02*
X182129342Y-99286785D01*
X182129342Y-99286785D02*
X181891247Y-99286785D01*
X181891247Y-99286785D02*
X181796009Y-99334404D01*
X181796009Y-99334404D02*
X181748390Y-99382023D01*
X181748390Y-99382023D02*
X181700771Y-99477261D01*
X181700771Y-99477261D02*
X181700771Y-99667737D01*
X181700771Y-99667737D02*
X181748390Y-99762975D01*
X181748390Y-99762975D02*
X181796009Y-99810594D01*
X181796009Y-99810594D02*
X181891247Y-99858213D01*
X95599819Y-97568333D02*
X96314104Y-97568333D01*
X96314104Y-97568333D02*
X96456961Y-97615952D01*
X96456961Y-97615952D02*
X96552200Y-97711190D01*
X96552200Y-97711190D02*
X96599819Y-97854047D01*
X96599819Y-97854047D02*
X96599819Y-97949285D01*
X95933152Y-96663571D02*
X96599819Y-96663571D01*
X95552200Y-96901666D02*
X96266485Y-97139761D01*
X96266485Y-97139761D02*
X96266485Y-96520714D01*
X183348333Y-115389819D02*
X183015000Y-114913628D01*
X182776905Y-115389819D02*
X182776905Y-114389819D01*
X182776905Y-114389819D02*
X183157857Y-114389819D01*
X183157857Y-114389819D02*
X183253095Y-114437438D01*
X183253095Y-114437438D02*
X183300714Y-114485057D01*
X183300714Y-114485057D02*
X183348333Y-114580295D01*
X183348333Y-114580295D02*
X183348333Y-114723152D01*
X183348333Y-114723152D02*
X183300714Y-114818390D01*
X183300714Y-114818390D02*
X183253095Y-114866009D01*
X183253095Y-114866009D02*
X183157857Y-114913628D01*
X183157857Y-114913628D02*
X182776905Y-114913628D01*
X184253095Y-114389819D02*
X183776905Y-114389819D01*
X183776905Y-114389819D02*
X183729286Y-114866009D01*
X183729286Y-114866009D02*
X183776905Y-114818390D01*
X183776905Y-114818390D02*
X183872143Y-114770771D01*
X183872143Y-114770771D02*
X184110238Y-114770771D01*
X184110238Y-114770771D02*
X184205476Y-114818390D01*
X184205476Y-114818390D02*
X184253095Y-114866009D01*
X184253095Y-114866009D02*
X184300714Y-114961247D01*
X184300714Y-114961247D02*
X184300714Y-115199342D01*
X184300714Y-115199342D02*
X184253095Y-115294580D01*
X184253095Y-115294580D02*
X184205476Y-115342200D01*
X184205476Y-115342200D02*
X184110238Y-115389819D01*
X184110238Y-115389819D02*
X183872143Y-115389819D01*
X183872143Y-115389819D02*
X183776905Y-115342200D01*
X183776905Y-115342200D02*
X183729286Y-115294580D01*
X175857819Y-107842904D02*
X176667342Y-107842904D01*
X176667342Y-107842904D02*
X176762580Y-107795285D01*
X176762580Y-107795285D02*
X176810200Y-107747666D01*
X176810200Y-107747666D02*
X176857819Y-107652428D01*
X176857819Y-107652428D02*
X176857819Y-107461952D01*
X176857819Y-107461952D02*
X176810200Y-107366714D01*
X176810200Y-107366714D02*
X176762580Y-107319095D01*
X176762580Y-107319095D02*
X176667342Y-107271476D01*
X176667342Y-107271476D02*
X175857819Y-107271476D01*
X175953057Y-106842904D02*
X175905438Y-106795285D01*
X175905438Y-106795285D02*
X175857819Y-106700047D01*
X175857819Y-106700047D02*
X175857819Y-106461952D01*
X175857819Y-106461952D02*
X175905438Y-106366714D01*
X175905438Y-106366714D02*
X175953057Y-106319095D01*
X175953057Y-106319095D02*
X176048295Y-106271476D01*
X176048295Y-106271476D02*
X176143533Y-106271476D01*
X176143533Y-106271476D02*
X176286390Y-106319095D01*
X176286390Y-106319095D02*
X176857819Y-106890523D01*
X176857819Y-106890523D02*
X176857819Y-106271476D01*
X188414819Y-99881666D02*
X187938628Y-100214999D01*
X188414819Y-100453094D02*
X187414819Y-100453094D01*
X187414819Y-100453094D02*
X187414819Y-100072142D01*
X187414819Y-100072142D02*
X187462438Y-99976904D01*
X187462438Y-99976904D02*
X187510057Y-99929285D01*
X187510057Y-99929285D02*
X187605295Y-99881666D01*
X187605295Y-99881666D02*
X187748152Y-99881666D01*
X187748152Y-99881666D02*
X187843390Y-99929285D01*
X187843390Y-99929285D02*
X187891009Y-99976904D01*
X187891009Y-99976904D02*
X187938628Y-100072142D01*
X187938628Y-100072142D02*
X187938628Y-100453094D01*
X187414819Y-99548332D02*
X187414819Y-98881666D01*
X187414819Y-98881666D02*
X188414819Y-99310237D01*
X185888333Y-115389819D02*
X185555000Y-114913628D01*
X185316905Y-115389819D02*
X185316905Y-114389819D01*
X185316905Y-114389819D02*
X185697857Y-114389819D01*
X185697857Y-114389819D02*
X185793095Y-114437438D01*
X185793095Y-114437438D02*
X185840714Y-114485057D01*
X185840714Y-114485057D02*
X185888333Y-114580295D01*
X185888333Y-114580295D02*
X185888333Y-114723152D01*
X185888333Y-114723152D02*
X185840714Y-114818390D01*
X185840714Y-114818390D02*
X185793095Y-114866009D01*
X185793095Y-114866009D02*
X185697857Y-114913628D01*
X185697857Y-114913628D02*
X185316905Y-114913628D01*
X186745476Y-114723152D02*
X186745476Y-115389819D01*
X186507381Y-114342200D02*
X186269286Y-115056485D01*
X186269286Y-115056485D02*
X186888333Y-115056485D01*
X104909819Y-94784285D02*
X103909819Y-94784285D01*
X103909819Y-94784285D02*
X103909819Y-94403333D01*
X103909819Y-94403333D02*
X103957438Y-94308095D01*
X103957438Y-94308095D02*
X104005057Y-94260476D01*
X104005057Y-94260476D02*
X104100295Y-94212857D01*
X104100295Y-94212857D02*
X104243152Y-94212857D01*
X104243152Y-94212857D02*
X104338390Y-94260476D01*
X104338390Y-94260476D02*
X104386009Y-94308095D01*
X104386009Y-94308095D02*
X104433628Y-94403333D01*
X104433628Y-94403333D02*
X104433628Y-94784285D01*
X104862200Y-93831904D02*
X104909819Y-93689047D01*
X104909819Y-93689047D02*
X104909819Y-93450952D01*
X104909819Y-93450952D02*
X104862200Y-93355714D01*
X104862200Y-93355714D02*
X104814580Y-93308095D01*
X104814580Y-93308095D02*
X104719342Y-93260476D01*
X104719342Y-93260476D02*
X104624104Y-93260476D01*
X104624104Y-93260476D02*
X104528866Y-93308095D01*
X104528866Y-93308095D02*
X104481247Y-93355714D01*
X104481247Y-93355714D02*
X104433628Y-93450952D01*
X104433628Y-93450952D02*
X104386009Y-93641428D01*
X104386009Y-93641428D02*
X104338390Y-93736666D01*
X104338390Y-93736666D02*
X104290771Y-93784285D01*
X104290771Y-93784285D02*
X104195533Y-93831904D01*
X104195533Y-93831904D02*
X104100295Y-93831904D01*
X104100295Y-93831904D02*
X104005057Y-93784285D01*
X104005057Y-93784285D02*
X103957438Y-93736666D01*
X103957438Y-93736666D02*
X103909819Y-93641428D01*
X103909819Y-93641428D02*
X103909819Y-93403333D01*
X103909819Y-93403333D02*
X103957438Y-93260476D01*
X104909819Y-92308095D02*
X104909819Y-92879523D01*
X104909819Y-92593809D02*
X103909819Y-92593809D01*
X103909819Y-92593809D02*
X104052676Y-92689047D01*
X104052676Y-92689047D02*
X104147914Y-92784285D01*
X104147914Y-92784285D02*
X104195533Y-92879523D01*
D11*
%TO.C,J1*%
X145205000Y-97465000D02*
X146455000Y-97465000D01*
X145495000Y-97175000D02*
X151465000Y-97175000D01*
X151465000Y-97175000D02*
X151465000Y-84555000D01*
X145505000Y-97165000D02*
X146255000Y-97165000D01*
X146255000Y-97165000D02*
X146255000Y-95365000D01*
X147755000Y-97165000D02*
X147755000Y-96415000D01*
X147755000Y-96415000D02*
X150705000Y-96415000D01*
X150705000Y-96415000D02*
X150705000Y-90865000D01*
X145205000Y-96215000D02*
X145205000Y-97465000D01*
X145505000Y-95365000D02*
X145505000Y-97165000D01*
X146255000Y-95365000D02*
X145505000Y-95365000D01*
X145505000Y-93865000D02*
X146255000Y-93865000D01*
X146255000Y-93865000D02*
X146255000Y-87865000D01*
X145505000Y-87865000D02*
X145505000Y-93865000D01*
X146255000Y-87865000D02*
X145505000Y-87865000D01*
X145505000Y-86365000D02*
X146255000Y-86365000D01*
X146255000Y-86365000D02*
X146255000Y-84565000D01*
X147755000Y-85315000D02*
X150705000Y-85315000D01*
X150705000Y-85315000D02*
X150705000Y-90865000D01*
X145505000Y-84565000D02*
X145505000Y-86365000D01*
X146255000Y-84565000D02*
X145505000Y-84565000D01*
X147755000Y-84565000D02*
X147755000Y-85315000D01*
X145495000Y-84555000D02*
X145495000Y-97175000D01*
X151465000Y-84555000D02*
X145495000Y-84555000D01*
%TO.C,J2*%
X154730000Y-97465000D02*
X155980000Y-97465000D01*
X155020000Y-97175000D02*
X160990000Y-97175000D01*
X160990000Y-97175000D02*
X160990000Y-84555000D01*
X155030000Y-97165000D02*
X155780000Y-97165000D01*
X155780000Y-97165000D02*
X155780000Y-95365000D01*
X157280000Y-97165000D02*
X157280000Y-96415000D01*
X157280000Y-96415000D02*
X160230000Y-96415000D01*
X160230000Y-96415000D02*
X160230000Y-90865000D01*
X154730000Y-96215000D02*
X154730000Y-97465000D01*
X155030000Y-95365000D02*
X155030000Y-97165000D01*
X155780000Y-95365000D02*
X155030000Y-95365000D01*
X155030000Y-93865000D02*
X155780000Y-93865000D01*
X155780000Y-93865000D02*
X155780000Y-87865000D01*
X155030000Y-87865000D02*
X155030000Y-93865000D01*
X155780000Y-87865000D02*
X155030000Y-87865000D01*
X155030000Y-86365000D02*
X155780000Y-86365000D01*
X155780000Y-86365000D02*
X155780000Y-84565000D01*
X157280000Y-85315000D02*
X160230000Y-85315000D01*
X160230000Y-85315000D02*
X160230000Y-90865000D01*
X155030000Y-84565000D02*
X155030000Y-86365000D01*
X155780000Y-84565000D02*
X155030000Y-84565000D01*
X157280000Y-84565000D02*
X157280000Y-85315000D01*
X155020000Y-84555000D02*
X155020000Y-97175000D01*
X160990000Y-84555000D02*
X155020000Y-84555000D01*
%TO.C,J3*%
X164255000Y-97485000D02*
X165505000Y-97485000D01*
X164545000Y-97195000D02*
X170515000Y-97195000D01*
X170515000Y-97195000D02*
X170515000Y-84575000D01*
X164555000Y-97185000D02*
X165305000Y-97185000D01*
X165305000Y-97185000D02*
X165305000Y-95385000D01*
X166805000Y-97185000D02*
X166805000Y-96435000D01*
X166805000Y-96435000D02*
X169755000Y-96435000D01*
X169755000Y-96435000D02*
X169755000Y-90885000D01*
X164255000Y-96235000D02*
X164255000Y-97485000D01*
X164555000Y-95385000D02*
X164555000Y-97185000D01*
X165305000Y-95385000D02*
X164555000Y-95385000D01*
X164555000Y-93885000D02*
X165305000Y-93885000D01*
X165305000Y-93885000D02*
X165305000Y-87885000D01*
X164555000Y-87885000D02*
X164555000Y-93885000D01*
X165305000Y-87885000D02*
X164555000Y-87885000D01*
X164555000Y-86385000D02*
X165305000Y-86385000D01*
X165305000Y-86385000D02*
X165305000Y-84585000D01*
X166805000Y-85335000D02*
X169755000Y-85335000D01*
X169755000Y-85335000D02*
X169755000Y-90885000D01*
X164555000Y-84585000D02*
X164555000Y-86385000D01*
X165305000Y-84585000D02*
X164555000Y-84585000D01*
X166805000Y-84585000D02*
X166805000Y-85335000D01*
X164545000Y-84575000D02*
X164545000Y-97195000D01*
X170515000Y-84575000D02*
X164545000Y-84575000D01*
%TO.C,R6*%
X182780000Y-100299564D02*
X182780000Y-99845436D01*
X184250000Y-100299564D02*
X184250000Y-99845436D01*
%TO.C,J4*%
X96945000Y-103835000D02*
X98195000Y-103835000D01*
X97235000Y-103545000D02*
X103205000Y-103545000D01*
X103205000Y-103545000D02*
X103205000Y-90925000D01*
X97245000Y-103535000D02*
X97995000Y-103535000D01*
X97995000Y-103535000D02*
X97995000Y-101735000D01*
X99495000Y-103535000D02*
X99495000Y-102785000D01*
X99495000Y-102785000D02*
X102445000Y-102785000D01*
X102445000Y-102785000D02*
X102445000Y-97235000D01*
X96945000Y-102585000D02*
X96945000Y-103835000D01*
X97245000Y-101735000D02*
X97245000Y-103535000D01*
X97995000Y-101735000D02*
X97245000Y-101735000D01*
X97245000Y-100235000D02*
X97995000Y-100235000D01*
X97995000Y-100235000D02*
X97995000Y-94235000D01*
X97245000Y-94235000D02*
X97245000Y-100235000D01*
X97995000Y-94235000D02*
X97245000Y-94235000D01*
X97245000Y-92735000D02*
X97995000Y-92735000D01*
X97995000Y-92735000D02*
X97995000Y-90935000D01*
X99495000Y-91685000D02*
X102445000Y-91685000D01*
X102445000Y-91685000D02*
X102445000Y-97235000D01*
X97245000Y-90935000D02*
X97245000Y-92735000D01*
X97995000Y-90935000D02*
X97245000Y-90935000D01*
X99495000Y-90935000D02*
X99495000Y-91685000D01*
X97235000Y-90925000D02*
X97235000Y-103545000D01*
X103205000Y-90925000D02*
X97235000Y-90925000D01*
%TO.C,R5*%
X182780000Y-112344564D02*
X182780000Y-111890436D01*
X184250000Y-112344564D02*
X184250000Y-111890436D01*
D12*
%TO.C,U2*%
X177673000Y-109113000D02*
X177673000Y-84475000D01*
X191897000Y-109113000D02*
X177673000Y-109113000D01*
D13*
X179705000Y-108605000D02*
X182245000Y-108605000D01*
X182245000Y-108605000D02*
X189865000Y-108605000D01*
X189865000Y-108605000D02*
X189865000Y-103525000D01*
X179705000Y-106065000D02*
X179705000Y-108605000D01*
X179705000Y-103525000D02*
X179705000Y-106065000D01*
X189865000Y-103525000D02*
X179705000Y-103525000D01*
D12*
X177673000Y-84475000D02*
X191897000Y-84475000D01*
X191897000Y-84475000D02*
X191897000Y-109113000D01*
D11*
%TO.C,R7*%
X185320000Y-100299564D02*
X185320000Y-99845436D01*
X186790000Y-100299564D02*
X186790000Y-99845436D01*
%TO.C,R4*%
X185320000Y-112344564D02*
X185320000Y-111890436D01*
X186790000Y-112344564D02*
X186790000Y-111890436D01*
%TO.C,PS1*%
X105605000Y-93120000D02*
X105605000Y-95130000D01*
X105995000Y-86520000D02*
X105995000Y-106720000D01*
X105995000Y-106720000D02*
X140195000Y-106720000D01*
X140195000Y-86520000D02*
X105995000Y-86520000D01*
X140195000Y-106720000D02*
X140195000Y-86520000D01*
%TD*%
D14*
%TO.C,U2*%
X180975000Y-107335000D03*
D15*
X180975000Y-104795000D03*
X183515000Y-107335000D03*
X183515000Y-104795000D03*
X186055000Y-107335000D03*
X186055000Y-104795000D03*
X188595000Y-107335000D03*
X188595000Y-104795000D03*
%TD*%
M02*
