%TF.GenerationSoftware,KiCad,Pcbnew,8.0.7*%
%TF.CreationDate,2025-01-26T18:01:06+01:00*%
%TF.ProjectId,ESP_PZEM004V3,4553505f-505a-4454-9d30-303456332e6b,rev?*%
%TF.SameCoordinates,Original*%
%TF.FileFunction,Soldermask,Top*%
%TF.FilePolarity,Negative*%
%FSLAX46Y46*%
G04 Gerber Fmt 4.6, Leading zero omitted, Abs format (unit mm)*
G04 Created by KiCad (PCBNEW 8.0.7) date 2025-01-26 18:01:06*
%MOMM*%
%LPD*%
G01*
G04 APERTURE LIST*
G04 Aperture macros list*
%AMRoundRect*
0 Rectangle with rounded corners*
0 $1 Rounding radius*
0 $2 $3 $4 $5 $6 $7 $8 $9 X,Y pos of 4 corners*
0 Add a 4 corners polygon primitive as box body*
4,1,4,$2,$3,$4,$5,$6,$7,$8,$9,$2,$3,0*
0 Add four circle primitives for the rounded corners*
1,1,$1+$1,$2,$3*
1,1,$1+$1,$4,$5*
1,1,$1+$1,$6,$7*
1,1,$1+$1,$8,$9*
0 Add four rect primitives between the rounded corners*
20,1,$1+$1,$2,$3,$4,$5,0*
20,1,$1+$1,$4,$5,$6,$7,0*
20,1,$1+$1,$6,$7,$8,$9,0*
20,1,$1+$1,$8,$9,$2,$3,0*%
G04 Aperture macros list end*
%ADD10RoundRect,0.250000X0.725000X-0.600000X0.725000X0.600000X-0.725000X0.600000X-0.725000X-0.600000X0*%
%ADD11O,1.950000X1.700000*%
%ADD12RoundRect,0.250000X0.450000X-0.262500X0.450000X0.262500X-0.450000X0.262500X-0.450000X-0.262500X0*%
%ADD13R,1.727200X1.727200*%
%ADD14O,1.727200X1.727200*%
%ADD15R,2.300000X2.000000*%
%ADD16C,2.300000*%
%ADD17C,2.000000*%
%ADD18R,1.800000X1.800000*%
%ADD19C,1.800000*%
G04 APERTURE END LIST*
D10*
%TO.C,J1*%
X147955000Y-94615000D03*
D11*
X147955000Y-92115000D03*
X147955000Y-89615000D03*
X147955000Y-87115000D03*
%TD*%
D10*
%TO.C,J2*%
X157480000Y-94615000D03*
D11*
X157480000Y-92115000D03*
X157480000Y-89615000D03*
X157480000Y-87115000D03*
%TD*%
D10*
%TO.C,J3*%
X167005000Y-94635000D03*
D11*
X167005000Y-92135000D03*
X167005000Y-89635000D03*
X167005000Y-87135000D03*
%TD*%
D12*
%TO.C,R6*%
X183515000Y-100985000D03*
X183515000Y-99160000D03*
%TD*%
D10*
%TO.C,J4*%
X99695000Y-100985000D03*
D11*
X99695000Y-98485000D03*
X99695000Y-95985000D03*
X99695000Y-93485000D03*
%TD*%
D12*
%TO.C,R5*%
X183515000Y-113030000D03*
X183515000Y-111205000D03*
%TD*%
D13*
%TO.C,U2*%
X180975000Y-107335000D03*
D14*
X180975000Y-104795000D03*
X183515000Y-107335000D03*
X183515000Y-104795000D03*
X186055000Y-107335000D03*
X186055000Y-104795000D03*
X188595000Y-107335000D03*
X188595000Y-104795000D03*
%TD*%
D12*
%TO.C,R7*%
X186055000Y-100985000D03*
X186055000Y-99160000D03*
%TD*%
%TO.C,R4*%
X186055000Y-113030000D03*
X186055000Y-111205000D03*
%TD*%
D15*
%TO.C,PS1*%
X108395000Y-94120000D03*
D16*
X108395000Y-99120000D03*
X137795000Y-88920000D03*
X137795000Y-104320000D03*
%TD*%
D17*
%TO.C,SW1*%
X171450000Y-106700000D03*
X164950000Y-106700000D03*
X171450000Y-111200000D03*
X164950000Y-111200000D03*
%TD*%
D18*
%TO.C,D3*%
X160655000Y-109240000D03*
D19*
X158115000Y-109240000D03*
%TD*%
D18*
%TO.C,D1*%
X146685000Y-109240000D03*
D19*
X144145000Y-109240000D03*
%TD*%
D18*
%TO.C,D2*%
X153670000Y-109240000D03*
D19*
X151130000Y-109240000D03*
%TD*%
M02*
